<?xml version="1.0" encoding="UTF-8"?>
<!-- Hondbaar — favicon / mini-symbool: baas + hond op crème, ronde badge (concept) -->
<svg xmlns="http://www.w3.org/2000/svg" viewBox="0 0 64 64" width="64" height="64" role="img" aria-label="Hondbaar">
	<circle cx="32" cy="32" r="32" fill="#3D2A4E"/>
	<circle cx="32" cy="32" r="27" fill="#F0E6D6"/>
	<!-- baas (donkerpaars) -->
	<g fill="#3D2A4E">
		<circle cx="24" cy="20" r="5"/>
		<path d="M24,26 C27,26 29,29 29,33 L30,46 L25,46 L23,36 L21,46 L17,46 L19,33 C19,29 21,26 24,26 Z"/>
	</g>
	<!-- hond (teal) -->
	<g fill="#2D7A7B">
		<ellipse cx="42" cy="40" rx="10" ry="6"/>
		<circle cx="50" cy="33" r="5"/>
		<path d="M53,33 L58,32 L57,37 L53,36 Z"/>
		<path d="M47,28 L50,22 L53,28 Z"/>
		<rect x="35" y="44" width="2.5" height="9" rx="1.25"/>
		<rect x="48" y="44" width="2.5" height="9" rx="1.25"/>
		<path d="M33,38 C28,36 27,30 31,28 C28,33 33,38 38,37 Z"/>
	</g>
</svg>
